<svg width="140" height="30" xmlns="http://www.w3.org/2000/svg">

 <g>
  <title>Layer 1</title>
  <g>
   <g clip-path="url(#svg_1)">
    <path fill="#191D26" d="m62.79421,5.25133c0.1849,-0.05666 0.3719,0.08162 0.3719,0.27501l0,1.56282c0,0.1264 -0.0825,0.23798 -0.2034,0.27501l-4.1833,1.28198l4.9957,1.53089c0.1208,0.0371 0.2033,0.1487 0.2033,0.275l0,1.5629c0,0.1934 -0.187,0.3316 -0.3719,0.275l-8.3587,-2.5615l-8.35875,2.5615c-0.18489,0.0566 -0.37191,-0.0816 -0.37191,-0.275l0,-1.5629c0,-0.1264 0.08251,-0.2379 0.20336,-0.275l4.99569,-1.53089l-4.18333,-1.28198c-0.12085,-0.03703 -0.20336,-0.14861 -0.20336,-0.27501l0,-1.56282c0,-0.19339 0.18702,-0.33167 0.37191,-0.27501l7.54639,2.31257l7.5464,-2.31257zm-8.67942,6.16681c-0.11003,-0.1225 -0.30024,-0.1277 -0.41758,-0.0122c-0.48467,0.4772 -0.97614,0.9434 -1.47284,1.4016l-6.63793,0c-0.15885,0 -0.28763,0.1288 -0.28763,0.2877l0,1.4523c0,0.1589 0.12878,0.2877 0.28763,0.2877l4.36179,0c-0.6863,0.5947 -1.37775,1.183 -2.07045,1.7725l-0.00007,0l-0.00002,0c-0.82727,0.704 -1.65634,1.4095 -2.48055,2.129c-0.06249,0.0546 -0.09833,0.1335 -0.09833,0.2165l0,2.488c0,0.2499 0.29707,0.3812 0.48274,0.214c0.70943,-0.6392 1.42645,-1.2697 2.14579,-1.8974l0,5.24c0,0.1588 0.12878,0.2876 0.28763,0.2876l1.58941,0c0.15885,0 0.28763,-0.1288 0.28763,-0.2876l0,-5.7954l0.0091,-0.0404l0,0c0.03289,-0.1461 0.04582,-0.2035 0.0665,-0.258c0.01339,-0.0352 0.03004,-0.0692 0.05746,-0.1253l0.02156,-0.0442c0.11354,-0.0844 0.17951,-0.0978 0.35305,-0.133c0.03275,-0.0067 0.06934,-0.0141 0.11081,-0.023l4.17472,0l0,7.6671c0,0.1588 0.1288,0.2876 0.2876,0.2876l1.7441,0c0.1588,0 0.2876,-0.1288 0.2876,-0.2876l0,-7.6671l4.1747,0c0.3782,0.0557 0.4385,0.1068 0.4639,0.156c0.1311,0.147 0.1483,0.2235 0.1546,0.6239l0,3.5874c-0.0051,0.1243 -0.1871,0.319 -0.3092,0.312l-0.9494,0c-0.1588,0 -0.2876,0.1287 -0.2876,0.2876l0,1.4524c0,0.1588 0.1288,0.2876 0.2876,0.2876l1.104,0c1.4274,-0.1205 2.3991,-0.6654 2.3193,-2.3396l0,-4.8352c0.0021,-0.3844 -0.168,-0.7496 -0.4639,-1.0918c-0.3915,-0.3589 -0.8437,-0.5342 -1.3916,-0.4679l-5.1024,0l0,-0.8501c0,-0.1588 -0.1288,-0.2876 -0.2876,-0.2876l-1.7441,0c-0.1588,0 -0.2876,0.1288 -0.2876,0.2876l0,0.8501l-3.29429,0c0.63315,-0.5649 1.26109,-1.1354 1.88011,-1.7157l11.64068,0c0.1589,0 0.2876,-0.1288 0.2876,-0.2877l0,-1.4523c0,-0.1589 -0.1287,-0.2877 -0.2876,-0.2877l-9.7821,0c-0.0121,-0.037 -0.0319,-0.0721 -0.0595,-0.1028l-1.15532,-1.2866z" clip-rule="evenodd" fill-rule="evenodd"/>
    <path fill="#191D26" d="m74.59871,9.50246c0,0.17618 0.157,0.31098 0.3311,0.28438l4.8023,-0.73391l0,4.07921l-6.0902,0c-0.1588,0 -0.2876,0.1288 -0.2876,0.2876l0,1.6212c0,0.1589 0.1288,0.2877 0.2876,0.2877l5.9347,0c-0.3284,3.5536 -2.5563,6.1921 -6.2356,8.3879c-0.0876,0.0522 -0.1423,0.1468 -0.1423,0.2488l0,1.7315c0,0.2118 0.2215,0.3506 0.4108,0.2556c3.6831,-1.8475 6.1184,-4.157 7.3671,-6.8584c1.1711,2.6383 3.5406,4.9409 7.0482,6.8384c0.1897,0.1026 0.4186,-0.0358 0.4186,-0.2515l0,-2.1835c0,-0.1034 -0.0564,-0.1992 -0.146,-0.251c-3.589,-2.0704 -5.6979,-4.4825 -5.9208,-7.9178l5.468,0c0.1589,0 0.2876,-0.1288 0.2876,-0.2877l0,-1.6212c0,-0.1588 -0.1287,-0.2876 -0.2876,-0.2876l-5.6235,0l0,-4.39299c0,0 3.7703,-0.63292 5.2117,-0.89789c0.1358,-0.02496 0.2328,-0.14337 0.2328,-0.28147l0,-1.82773c0,-0.15885 -0.1218,-0.26665 -0.2784,-0.24016c-1.7283,0.29227 -10.9698,1.84371 -12.5565,2.11007c-0.1385,0.02326 -0.232,0.14184 -0.232,0.28232l0,1.61817zm-3.7851,-0.52262c0.0498,0.09439 0.1477,0.15347 0.2545,0.15347l1.5796,0c0.214,0 0.3531,-0.2254 0.2571,-0.41668l-1.4591,-2.90661c-0.0488,-0.09722 -0.1483,-0.15859 -0.2571,-0.15859l-1.6532,0c-0.2166,0 -0.3554,0.23025 -0.2544,0.4218l1.5326,2.90661zm-0.6421,5.8256c0.0457,0.1049 0.1493,0.1728 0.2638,0.1728l1.6279,0c0.2114,0 0.3506,-0.2203 0.2598,-0.4111l-1.4743,-3.0998c-0.0477,-0.1002 -0.1487,-0.1641 -0.2597,-0.1641l-1.5023,0c-0.2072,0 -0.3464,0.2124 -0.2637,0.4024l1.3485,3.0998zm-1.6054,10.4404c-0.1968,-0.0044 -0.3311,-0.2007 -0.264,-0.3857l2.6954,-7.4255c0.0418,-0.1151 0.1518,-0.1912 0.2743,-0.1895l1.5825,0.0218c0.1966,0.0027 0.3326,0.1974 0.2675,0.3828l-2.6114,7.4409c-0.0413,0.1175 -0.1534,0.1951 -0.2778,0.1923l-1.6665,-0.0371z" clip-rule="evenodd" fill-rule="evenodd"/>
    <path fill="#191D26" d="m91.46381,8.22272l0,17.06832c0,0.1588 0.1288,0.2876 0.2877,0.2876l17.2506,0c0.1585,0 0.2872,-0.127 0.2875,-0.2856c0.0018,-0.8237 0.0062,-3.21 -0.0006,-4.2346c0,0 -0.0266,-5.7389 0,-8.6031c-0.0046,-0.2596 -0.0006,-0.5088 0.0032,-0.7493l0,-0.0001c0.0186,-1.1622 0.0339,-2.11876 -0.9332,-3.04178c-0.9604,-0.79367 -2.1308,-0.76926 -3.5418,-0.73984c-0.2091,0.00436 -0.4235,0.00883 -0.6433,0.01077c-1.6066,-0.01499 -4.805,0 -4.805,0c0,0 0.6983,-1.79093 1.0962,-2.91601c0.0646,-0.18241 -0.0687,-0.3723 -0.2621,-0.37721l-2.1907,-0.05561c-0.117,-0.00297 -0.224,0.06462 -0.2687,0.17274c-0.101,0.24477 -0.2193,0.55235 -0.3473,0.8853l0,0.00002c-0.3026,0.78686 -0.6597,1.71531 -0.9724,2.29077l-4.6724,0c-0.1589,0 -0.2877,0.12878 -0.2877,0.28763zm13.435,1.82362l-11.1336,0l0,5.7527l13.2312,0l0,-3.6753c0,-0.7744 -0.0294,-1.3872 -0.3227,-1.7578c-0.3624,-0.2468 -1.061,-0.3196 -1.7749,-0.3196zm2.0976,13.5189l-13.2312,0l0,-5.7527l13.2312,0l0,5.7527z" clip-rule="evenodd" fill-rule="evenodd"/>
    <path fill="#191D26" d="m123.09871,23.29784c-0.0981,0.0495 -0.1609,0.1496 -0.1609,0.2595l0,2.0034c0,0.2073 0.2125,0.3462 0.4,0.2579c1.9025,-0.8956 3.1243,-1.9706 4.5275,-3.2121c2.2875,2.3022 4.2338,3.2656 6.0221,3.3817c0.1601,0.0104 0.2914,-0.1197 0.2914,-0.2802l0,-1.9416c0,-0.1365 -0.0962,-0.2537 -0.2289,-0.2854c-1.76,-0.4207 -3.294,-1.4557 -4.3907,-2.4169c1.5095,-2.0341 2.8919,-4.0074 3.4829,-7.7287c0,0 0.1644,-1.0706 -0.5572,-1.6798c-0.594,-0.5016 -1.1175,-0.4909 -1.97,-0.4734c-0.1831,0.0037 -0.3813,0.0078 -0.5986,0.0071c-1.2296,-0.0035 -7.1042,0 -7.1042,0l0,-2.28909c0,0 7.1372,-0.95738 9.4761,-1.65564c0.1186,-0.03539 0.1967,-0.14538 0.1967,-0.26912l0,-1.66843c0,-0.20695 -0.2092,-0.34989 -0.4043,-0.28105c-2.7299,0.96292 -9.9006,1.93357 -11.3493,2.12337c-0.1473,0.0193 -0.2537,0.14334 -0.2492,0.29187c0.0455,1.50398 0.2519,9.15409 -0.1621,11.92629c-0.199,2.7149 -0.4684,2.923 -1.0284,3.3557c-0.081,0.0626 -0.1681,0.1299 -0.2619,0.2101c-0.0614,0.0526 -0.0956,0.1305 -0.0956,0.2114l0,2.4872c0,0.2265 0.2502,0.3629 0.4373,0.235c2.3998,-1.64 3.0126,-3.2253 3.2584,-6.3452c0.1806,-3.331 0.1823,-6.3294 0.1823,-6.3294c0,0 4.9729,0 7.2106,-0.0111c0.0051,0.0001 0.0102,0.0003 0.0153,0.0004c0.1721,0.0052 0.3101,0.0093 0.4466,0.1538c0.111,0.2168 0.0893,0.3111 0.0436,0.5087c-0.0134,0.0581 -0.0288,0.125 -0.0436,0.2066c-0.4798,2.6535 -1.2611,3.6404 -2.2462,4.8851c-0.072,0.0908 -0.145,0.1831 -0.2191,0.2775c-0.8334,-1.21 -1.3885,-2.2823 -2.0617,-4.3362c-0.0515,-0.1573 -0.2243,-0.2408 -0.3788,-0.1813l-1.4512,0.5591c-0.1473,0.0567 -0.2213,0.2216 -0.1653,0.3691c0.6835,1.7983 1.3955,3.3843 2.5172,5.2859c-0.765,0.7653 -1.9584,1.6704 -3.3808,2.3879zm-10.4629,-13.275c0,0.1589 0.1288,0.2876 0.2876,0.2876l2.4068,0c-0.815,2.988 -1.7835,5.7134 -2.9798,8.0593c-0.0207,0.0407 -0.0316,0.0856 -0.0316,0.1312l0,2.5871c0,0.2955 0.3929,0.3989 0.5385,0.1417c1.0207,-1.8029 1.8752,-3.3556 2.4729,-4.9847l0,9.6214c0,0.1589 0.1288,0.2876 0.2876,0.2876l1.6436,0c0.1589,0 0.2877,-0.1287 0.2877,-0.2876l0,-10.7615l1.9789,3.3949c0.1473,0.2526 0.5337,0.1499 0.5361,-0.1425l0.0203,-2.4558c0.0004,-0.0422 -0.0086,-0.084 -0.0262,-0.1224l-2.5091,-5.4687l2.0897,0c0.1589,0 0.2877,-0.1287 0.2877,-0.2876l0,-1.4315c0,-0.15886 -0.1288,-0.28764 -0.2877,-0.28764l-2.0897,0l0,-2.85929c0,-0.15886 -0.1288,-0.28764 -0.2877,-0.28764l-1.6436,0c-0.1588,0 -0.2876,0.12878 -0.2876,0.28764l0,2.85929l-2.4068,0c-0.1588,0 -0.2876,0.12878 -0.2876,0.28764l0,1.4315z" clip-rule="evenodd" fill-rule="evenodd"/>
   </g>
   <defs transform="translate(0 0.186567) translate(0 0.186567) translate(0 0.186567) translate(0 0.746269) translate(-30.597 -0.746269) translate(0 -0.5597) translate(70.3358 0.559702) translate(0 4.02646) translate(0 -0.0264585) translate(0.0000038147 0) translate(-0.0000038147 0) translate(5.56 0) translate(2.98023e-8 0) translate(0.440002 0) translate(-24 -31) translate(-332 -258) translate(354.56 0) translate(0 284.092)">
    <clipPath id="svg_1">
     <rect x="44.29881" y="-0.34816" fill="white" height="32" width="100"/>
    </clipPath>
   </defs>
  </g>
  <g>
   <g clip-path="url(#svg_2)">
    <path fill="#80E5C1" d="m35.15263,26.3783c2.2041,-0.0288 3.982,-1.8245 3.982,-4.0355l0,-12.1536c0,-1.30548 -0.8585,-2.38016 -2.0065,-2.74768c0.0041,0.06346 0.0062,0.12755 0.0062,0.19221l0,15.26977c0,1.4789 -0.7954,2.772 -1.9817,3.4748z" clip-rule="evenodd" fill-rule="evenodd"/>
    <path fill="#4CDAA8" d="m32.29563,26.9396l0.5175,0c2.2289,0 4.0358,-1.8069 4.0358,-4.0359l0,-15.26979c0,-1.53459 -1.1868,-2.75222 -2.6382,-2.87355c0.0438,0.19994 0.067,0.40819 0.067,0.62261l0,18.08163c0,1.479 -0.7956,2.7722 -1.9821,3.475z" clip-rule="evenodd" fill-rule="evenodd"/>
    <path fill="#00C881" d="m7.13403,8.90704c0,-1.40877 1.01819,-2.61119 2.40769,-2.84334l21.09221,-3.52407c1.7575,-0.29364 3.3578,1.0615 3.3578,2.84334l0,18.08163c0,2.229 -1.8069,4.0359 -4.0359,4.0359l-19.93905,0c-1.5921,0 -2.88275,-1.2907 -2.88275,-2.8828l0,-15.71066z" clip-rule="evenodd" fill-rule="evenodd"/>
    <path fill="white" d="m12.6477,12.6571c-0.14552,0.0167 -0.25537,0.1399 -0.25537,0.2864l0,7.2572c0,0.1593 0.12907,0.2883 0.28828,0.2883l5.99932,0c0.1592,0 0.2883,-0.129 0.2883,-0.2883l0,-1.1215c0,-0.1592 -0.1291,-0.2882 -0.2883,-0.2882l-4.57081,0l0,-1.574l4.00671,-0.1045c0.1562,-0.004 0.2807,-0.1318 0.2807,-0.2881l0,-1.0967c0,-0.1668 -0.1411,-0.2987 -0.3075,-0.2876l-3.97991,0.2667l0,-1.5102l4.59621,-0.4765c0.1469,-0.0153 0.2586,-0.1391 0.2586,-0.2868l0,-1.1786c0,-0.1723 -0.1501,-0.3061 -0.3212,-0.2864l-5.99503,0.6888z" clip-rule="evenodd" fill-rule="evenodd"/>
    <path fill="white" d="m20.64153,11.6453c-0.1425,0.0197 -0.2487,0.1416 -0.2487,0.2856l0,8.2699c0,0.1592 0.1291,0.2883 0.2883,0.2883l1.5014,0c0.1592,0 0.2883,-0.1291 0.2883,-0.2883l0,-4.9973l3.7837,5.1676c0.0543,0.0742 0.1407,0.118 0.2326,0.118l1.9032,0c0.1592,0 0.2883,-0.1291 0.2883,-0.2883l0,-9.2069c0,-0.1714 -0.1487,-0.3049 -0.3192,-0.2866l-1.7611,0.1896c-0.1464,0.0158 -0.2574,0.1394 -0.2574,0.2867l0,5.53l-4.0277,-5.1547c-0.0632,-0.081 -0.1649,-0.1222 -0.2667,-0.1081l-1.405,0.1945z" clip-rule="evenodd" fill-rule="evenodd"/>
   </g>
   <defs transform="translate(0 1.30597) translate(-30.4104 -1.30597) translate(0 1.86567) translate(-46.4552 -1.86567) translate(83.9997 0) translate(0 -0.500499)">
    <clipPath id="svg_2">
     <rect x="7.13403" y="-0.5005" fill="white" height="32" width="32"/>
    </clipPath>
   </defs>
  </g>
 </g>
</svg>