<?xml version="1.0" encoding="UTF-8" standalone="no"?>
<!-- Generator: Adobe Illustrator 22.1.0, SVG Export Plug-In . SVG Version: 6.00 Build 0)  -->

<svg
   version="1.1"
   id="图层_1"
   x="0px"
   y="0px"
   viewBox="0 0 128 20"
   style="enable-background:new 0 0 128 20;"
   xml:space="preserve"
   sodipodi:docname="logo.svg"
   inkscape:version="1.3 (0e150ed6c4, 2023-07-21)"
   xmlns:inkscape="http://www.inkscape.org/namespaces/inkscape"
   xmlns:sodipodi="http://sodipodi.sourceforge.net/DTD/sodipodi-0.dtd"
   xmlns="http://www.w3.org/2000/svg"
   xmlns:svg="http://www.w3.org/2000/svg"><defs
   id="defs2" /><sodipodi:namedview
   id="namedview2"
   pagecolor="#ffffff"
   bordercolor="#000000"
   borderopacity="0.25"
   inkscape:showpageshadow="2"
   inkscape:pageopacity="0.0"
   inkscape:pagecheckerboard="0"
   inkscape:deskcolor="#d1d1d1"
   inkscape:zoom="10.828125"
   inkscape:cx="38.972583"
   inkscape:cy="3.6479076"
   inkscape:window-width="1920"
   inkscape:window-height="991"
   inkscape:window-x="-9"
   inkscape:window-y="-9"
   inkscape:window-maximized="1"
   inkscape:current-layer="图层_1" />&#10;<style
   type="text/css"
   id="style1">&#10;	.st0{fill:#FFFFFF;}&#10;</style>&#10;<title
   id="title1">seewo希沃logo_画板 1</title>&#10;<desc
   id="desc1">Created with Sketch.</desc>&#10;<g
   id="Page-1"
   style="fill:#000000;fill-opacity:1">&#10;	<g
   id="画板"
   transform="translate(-359.000000, -21.000000)"
   style="fill:#000000;fill-opacity:1">&#10;		<g
   id="seewo希沃logo_画板-1"
   transform="translate(359.000000, 21.000000)"
   style="fill:#000000;fill-opacity:1">&#10;			<g
   id="图层_1_1_"
   style="fill:#000000;fill-opacity:1">&#10;				<g
   id="分组"
   style="fill:#000000;fill-opacity:1">&#10;					<g
   transform="translate(0.000000, 0.277778)"
   id="g1"
   style="fill:#000000;fill-opacity:1">&#10;						<path
   id="路径"
   class="st0"
   d="M60.2,17.6L60.2,17.6l5.7-16.7c0.1-0.2-0.1-0.3-0.2-0.3H63c-0.1,0-0.2,0.1-0.2,0.2l-4.7,13.9        L53.3,0.8c0-0.1-0.1-0.2-0.2-0.2h-2.6c-0.2,0-0.3,0.2-0.2,0.3l5.7,16.7l0,0c0.3,0.9,1.1,1.5,2.1,1.5        C59,19.2,59.9,18.5,60.2,17.6z"
   style="fill:#000000;fill-opacity:1" />&#10;						<path
   id="路径_1_"
   class="st0"
   d="M3.1,13.6H0.4c-0.2,0-0.3,0.1-0.2,0.3c0.6,3.1,2.3,4.3,2.3,4.3c1.2,1,3,1.5,5.3,1.5        c1.4,0,2.6-0.3,3.7-0.8c1.1-0.5,2-1.2,2.5-2.2c0.6-0.9,0.9-1.9,0.9-3c0-1.1-0.2-2-0.7-2.7c-0.5-0.7-1.1-1.3-2-1.7        c-0.8-0.4-2.3-0.9-4.4-1.5C6.3,7.4,5.4,7.2,5.1,7C4.6,6.8,4.2,6.6,4,6.2C3.8,5.9,3.6,5.6,3.6,5.2c0-0.6,0.3-1.2,0.9-1.6        C5.1,3.1,6,2.8,7.4,2.8c1.1,0,2,0.3,2.6,0.8c0,0,0.7,0.6,1,1.6c0,0.1,0.1,0.2,0.2,0.2h2.6c0.1,0,0.3-0.1,0.2-0.3        c-0.5-2.9-1.8-3.8-3.3-4.4c-1-0.4-2.3-0.6-3.7-0.6c-0.9,0-1.8,0.1-2.6,0.4C3.8,0.8,3.1,1.1,2.7,1.4C2,1.9,1.5,2.5,1.2,3.2        C0.8,3.9,0.6,4.7,0.6,5.5c0,0.9,0.2,1.8,0.7,2.5c0.4,0.8,1.1,1.4,1.9,1.8c0.8,0.4,2.4,0.9,4.6,1.5c1.6,0.4,2.6,0.8,3,1.1        c0.6,0.4,0.9,0.9,0.9,1.6c0,0.8-0.3,1.5-1,2c-0.6,0.6-1.7,0.9-3,0.9c-1.3,0-2.4-0.3-3.1-1c0,0-0.9-0.7-1.3-2.2        C3.3,13.6,3.2,13.6,3.1,13.6z"
   style="fill:#000000;fill-opacity:1" />&#10;						<path
   id="形状"
   class="st0"
   d="M79.6,19.6c1.6,0,3.1-0.4,4.4-1.1c1.3-0.8,2.4-1.9,3.1-3.2c0.7-1.4,1.1-3.3,1.1-5.7        c0-2.9-0.8-5.3-2.4-7c-1.6-1.7-3.7-2.5-6.1-2.5c-2.2,0-4.2,0.7-5.7,2.1c-1.9,1.7-2.8,4.2-2.8,7.7c0,3.1,0.8,5.6,2.4,7.2        C75,18.8,77.1,19.6,79.6,19.6z M74.2,9.9c0-2.3,0.5-4.1,1.5-5.3c1-1.1,2.3-1.7,3.9-1.7c1.5,0,2.8,0.6,3.8,1.7        c1,1.2,1.5,2.9,1.5,5.1c0,2.4-0.5,4.2-1.5,5.4c-1,1.2-2.3,1.7-3.8,1.7c-1.5,0-2.8-0.6-3.9-1.7C74.7,14,74.2,12.2,74.2,9.9z"
   style="fill:#000000;fill-opacity:1" />&#10;						<path
   id="形状_1_"
   class="st0"
   d="M27.9,15.1c-1,1.2-2.3,1.7-3.8,1.7c-1.5,0-2.8-0.6-3.9-1.7c-0.9-1-1.4-2.5-1.5-4.5h13.7        c0.1,0,0.2-0.1,0.2-0.2c0-0.3,0-0.8,0-0.8c0-2.9-0.8-5.3-2.4-7c-1.6-1.7-3.7-2.5-6.1-2.5c-2.2,0-4.2,0.7-5.7,2.1        c-1.9,1.7-2.8,4.2-2.8,7.7c0,3.1,0.8,5.6,2.4,7.2c1.6,1.7,3.7,2.5,6.2,2.5c1.6,0,3.1-0.4,4.4-1.1c1.3-0.8,2.4-1.9,3.1-3.2        c0,0,0.4-0.7,0.7-2.1c0-0.1-0.1-0.3-0.2-0.3h-2.8c-0.1,0-0.2,0.1-0.2,0.2C28.6,14.4,27.9,15.1,27.9,15.1z M29.3,7.9H18.8        c0.2-1.4,0.7-2.4,1.4-3.2c1-1.1,2.3-1.7,3.9-1.7c1.5,0,2.8,0.6,3.8,1.7C28.6,5.4,29.1,6.5,29.3,7.9z"
   style="fill:#000000;fill-opacity:1" />&#10;						<path
   id="形状_2_"
   class="st0"
   d="M46.4,15.1c-1,1.2-2.3,1.7-3.8,1.7c-1.5,0-2.8-0.6-3.9-1.7c-0.9-1-1.4-2.5-1.5-4.5h13.7        c0.1,0,0.2-0.1,0.2-0.2c0-0.3,0-0.8,0-0.8c0-2.9-0.8-5.3-2.4-7c-1.6-1.7-3.7-2.5-6.1-2.5c-2.2,0-4.2,0.7-5.7,2.1        C35,3.9,34,6.4,34,9.9c0,3.1,0.8,5.6,2.4,7.2c1.6,1.7,3.6,2.5,6.2,2.5c1.6,0,3.1-0.4,4.4-1.1c1.3-0.8,2.4-1.9,3.1-3.2        c0,0,0.4-0.7,0.7-2.1c0-0.1-0.1-0.3-0.2-0.3h-2.8c-0.1,0-0.2,0.1-0.2,0.2C47.1,14.4,46.4,15.1,46.4,15.1z M47.8,7.9H37.3        c0.2-1.4,0.7-2.4,1.4-3.2c1-1.1,2.3-1.7,3.9-1.7c1.5,0,2.8,0.6,3.8,1.7C47.1,5.4,47.6,6.5,47.8,7.9z"
   style="fill:#000000;fill-opacity:1" />&#10;						<path
   id="路径_2_"
   class="st0"
   d="M68.6,0.8l-4.7,13.9L63,12.3l-1.6,4.6l0.3,0.7l0,0c0.3,0.9,1.1,1.5,2.1,1.5        c1,0,1.8-0.6,2.1-1.5h0l5.7-16.7c0.1-0.2-0.1-0.3-0.2-0.3h-2.6C68.7,0.6,68.6,0.7,68.6,0.8z"
   style="fill:#000000;fill-opacity:1" />&#10;						<path
   id="路径_3_"
   class="st0"
   d="M60.4,4.6l-1.3-3.9c0-0.1-0.1-0.2-0.2-0.2h-2.6c-0.2,0-0.3,0.2-0.2,0.3l2.8,8.3L60.4,4.6z        "
   style="fill:#000000;fill-opacity:1" />&#10;					</g>&#10;					<g
   transform="translate(90.000000, 0.000000)"
   id="g2"
   style="fill:#000000;fill-opacity:1">&#10;						<rect
   id="矩形"
   x="29.3"
   y="2"
   class="st0"
   width="2.2"
   height="6.1"
   style="fill:#000000;fill-opacity:1" />&#10;						<rect
   id="矩形_1_"
   x="23.4"
   y="7.5"
   class="st0"
   width="14"
   height="2.2"
   style="fill:#000000;fill-opacity:1" />&#10;						<polygon
   id="矩形_2_"
   class="st0"
   points="19.2,1 21.3,0.3 22.6,4 20.5,4.7       "
   style="fill:#000000;fill-opacity:1" />&#10;						<polygon
   id="矩形_3_"
   class="st0"
   points="19.2,6.1 21.3,5.4 22.6,9.1 20.5,9.9       "
   style="fill:#000000;fill-opacity:1" />&#10;						<polygon
   id="路径_4_"
   class="st0"
   points="36.7,0.3 24.1,1.4 24.1,3.5 36.7,2.4       "
   style="fill:#000000;fill-opacity:1" />&#10;						<polygon
   id="矩形_4_"
   class="st0"
   points="19.1,19.2 21.9,10.9 24,11.6 21.1,19.9       "
   style="fill:#000000;fill-opacity:1" />&#10;						<path
   id="路径_5_"
   class="st0"
   d="M29,8.6c-0.2,1.5-0.6,2.7-1.3,3.9c-0.9,1.5-2.2,3-4.4,4.7v2.7c3.3-2.4,5.1-4.3,6.3-6.4        c0.8-1.4,1.3-3,1.6-4.9L29,8.6L29,8.6z"
   style="fill:#000000;fill-opacity:1" />&#10;						<path
   id="路径_6_"
   class="st0"
   d="M31.7,8.6c0.2,1.5,0.6,2.7,1.3,3.9c0.9,1.5,2.2,3,4.4,4.7v2.7c-3.3-2.4-5.1-4.3-6.3-6.4        c-0.8-1.4-1.3-3-1.6-4.9L31.7,8.6L31.7,8.6z"
   style="fill:#000000;fill-opacity:1" />&#10;						<g
   id="路径_7_"
   transform="translate(0.000000, 0.277778)"
   style="fill:#000000;fill-opacity:1">&#10;							<path
   class="st0"
   d="M17.8,9.5V7.4H9.9L8.4,5.8L6.9,7.4H0.1v2.2h4.6l-4.6,4.6v3.1L3.3,14v4.8h2.2v-5.1l0,0         c0-0.2,0.1-0.3,0.3-0.3h3.3v6.2h2.2v-6.2h3.3l0,0c0.2,0,0.3,0.1,0.3,0.3l0,0v2.6l0,0c0,0.2-0.1,0.3-0.3,0.3h-1.2v2.2h1.2         c1.4,0,2.4-1.1,2.4-2.5v-2.6c0-1.4-1.1-2.4-2.4-2.4h-3.3v-1H9.1v1H6l1.8-1.8L17.8,9.5L17.8,9.5z"
   id="path1"
   style="fill:#000000;fill-opacity:1" />&#10;							<polygon
   class="st0"
   points="17,7 17,4.7 12.6,3.3 15.8,2.3 15.8,0 9,2.2 2.1,0 2.1,2.3 5.4,3.3 0.9,4.7 0.9,7 9,4.4                 "
   id="polygon1"
   style="fill:#000000;fill-opacity:1" />&#10;						</g>&#10;					</g>&#10;				</g>&#10;			</g>&#10;		</g>&#10;	</g>&#10;</g>&#10;</svg>
